# File exported by Houdini 17.5.229 (www.sidefx.com)
# 56 points
# 324 vertices
# 108 primitives
# Bounds: [-0.0111315502, -0.304800004, -0.0111315502] to [0.0111315502, 0.304800004, 0.0111315502]
g 
v -0.0111315502 0.304800004 -0.00863155071
v -0.0110463649 0.304800004 -0.00927859824
v -0.010796614 0.304800004 -0.00988155045
v -0.0103993174 0.304800004 -0.0103993174
v -0.00988155045 0.304800004 -0.010796614
v -0.00927859824 0.304800004 -0.0110463649
v -0.00863155071 0.304800004 -0.0111315502
v -0.00863155071 -0.304800004 -0.0111315502
v -0.00927859824 -0.304800004 -0.0110463649
v -0.00988155045 -0.304800004 -0.010796614
v -0.0103993174 -0.304800004 -0.0103993174
v -0.010796614 -0.304800004 -0.00988155045
v -0.0110463649 -0.304800004 -0.00927859824
v -0.0111315502 -0.304800004 -0.00863155071
v 0.00863155071 -0.304800004 -0.0111315502
v 0.00927859824 -0.304800004 -0.0110463649
v 0.00988155045 -0.304800004 -0.010796614
v 0.0103993174 -0.304800004 -0.0103993174
v 0.010796614 -0.304800004 -0.00988155045
v 0.0110463649 -0.304800004 -0.00927859824
v 0.0111315502 -0.304800004 -0.00863155071
v 0.0111315502 -0.304800004 0.00863155071
v 0.0110463649 -0.304800004 0.00927859824
v 0.010796614 -0.304800004 0.00988155045
v 0.0103993174 -0.304800004 0.0103993174
v 0.00988155045 -0.304800004 0.010796614
v 0.00927859824 -0.304800004 0.0110463649
v 0.00863155071 -0.304800004 0.0111315502
v -0.00863155071 -0.304800004 0.0111315502
v -0.00927859824 -0.304800004 0.0110463649
v -0.00988155045 -0.304800004 0.010796614
v -0.0103993174 -0.304800004 0.0103993174
v -0.010796614 -0.304800004 0.00988155045
v -0.0110463649 -0.304800004 0.00927859824
v -0.0111315502 -0.304800004 0.00863155071
v 0.00863155071 0.304800004 -0.0111315502
v 0.00927859824 0.304800004 -0.0110463649
v 0.00988155045 0.304800004 -0.010796614
v 0.0103993174 0.304800004 -0.0103993174
v 0.010796614 0.304800004 -0.00988155045
v 0.0110463649 0.304800004 -0.00927859824
v 0.0111315502 0.304800004 -0.00863155071
v -0.00863155071 0.304800004 0.0111315502
v -0.00927859824 0.304800004 0.0110463649
v -0.00988155045 0.304800004 0.010796614
v -0.0103993174 0.304800004 0.0103993174
v -0.010796614 0.304800004 0.00988155045
v -0.0110463649 0.304800004 0.00927859824
v -0.0111315502 0.304800004 0.00863155071
v 0.00863155071 0.304800004 0.0111315502
v 0.0111315502 0.304800004 0.00863155071
v 0.0110463649 0.304800004 0.00927859824
v 0.010796614 0.304800004 0.00988155045
v 0.0103993174 0.304800004 0.0103993174
v 0.00988155045 0.304800004 0.010796614
v 0.00927859824 0.304800004 0.0110463649
vn -0.099999994 0 0
vn -0.099999994 0 0
vn -0.0965929851 0 -0.0258819964
vn -0.0965929851 0 -0.0258819964
vn -0.099999994 0 0
vn -0.0965929851 0 -0.0258819964
vn -0.0965929851 0 -0.0258819964
vn -0.0965929851 0 -0.0258819964
vn -0.0866030008 0 -0.049999997
vn -0.0866030008 0 -0.049999997
vn -0.0965929851 0 -0.0258819964
vn -0.0866030008 0 -0.049999997
vn -0.0866030008 0 -0.049999997
vn -0.0866030008 0 -0.049999997
vn -0.0707110018 0 -0.0707110018
vn -0.0707110018 0 -0.0707110018
vn -0.0866030008 0 -0.049999997
vn -0.0707110018 0 -0.0707110018
vn -0.0707110018 0 -0.0707110018
vn -0.0707110018 0 -0.0707110018
vn -0.049999997 0 -0.0866030008
vn -0.049999997 0 -0.0866030008
vn -0.0707110018 0 -0.0707110018
vn -0.049999997 0 -0.0866030008
vn -0.049999997 0 -0.0866030008
vn -0.049999997 0 -0.0866030008
vn -0.0258819964 0 -0.0965929851
vn -0.0258819964 0 -0.0965929851
vn -0.049999997 0 -0.0866030008
vn -0.0258819964 0 -0.0965929851
vn -0.0258819964 0 -0.0965929851
vn -0.0258819964 0 -0.0965929851
vn 0 0 -0.099999994
vn 0 0 -0.099999994
vn -0.0258819964 0 -0.0965929851
vn 0 0 -0.099999994
vn 0 -0.099999994 0
vn 0 -0.099999994 0
vn 0 -0.099999994 0
vn 0 -0.099999994 0
vn 0 -0.099999994 0
vn 0 -0.099999994 0
vn 0 -0.099999994 0
vn 0 -0.099999994 0
vn 0 -0.099999994 0
vn 0 -0.099999994 0
vn 0 -0.099999994 0
vn 0 -0.099999994 0
vn 0 -0.099999994 0
vn 0 -0.099999994 0
vn 0 -0.099999994 0
vn 0 -0.099999994 0
vn 0 -0.099999994 0
vn 0 -0.099999994 0
vn 0 -0.099999994 0
vn 0 -0.099999994 0
vn 0 -0.099999994 0
vn 0 -0.099999994 0
vn 0 -0.099999994 0
vn 0 -0.099999994 0
vn 0 -0.099999994 0
vn 0 -0.099999994 0
vn 0 -0.099999994 0
vn 0 -0.099999994 0
vn 0 -0.099999994 0
vn 0 -0.099999994 0
vn 0 -0.099999994 0
vn 0 -0.099999994 0
vn 0 -0.099999994 0
vn 0 -0.099999994 0
vn 0 -0.099999994 0
vn 0 -0.099999994 0
vn 0 -0.099999994 0
vn 0 -0.099999994 0
vn 0 -0.099999994 0
vn 0 -0.099999994 0
vn 0 -0.099999994 0
vn 0 -0.099999994 0
vn 0 -0.099999994 0
vn 0 -0.099999994 0
vn 0 -0.099999994 0
vn 0 -0.099999994 0
vn 0 -0.099999994 0
vn 0 -0.099999994 0
vn 0 -0.099999994 0
vn 0 -0.099999994 0
vn 0 -0.099999994 0
vn 0 -0.099999994 0
vn 0 -0.099999994 0
vn 0 -0.099999994 0
vn 0 -0.099999994 0
vn 0 -0.099999994 0
vn 0 -0.099999994 0
vn 0 -0.099999994 0
vn 0 -0.099999994 0
vn 0 -0.099999994 0
vn 0 -0.099999994 0
vn 0 -0.099999994 0
vn 0 -0.099999994 0
vn 0 -0.099999994 0
vn 0 -0.099999994 0
vn 0 -0.099999994 0
vn 0 -0.099999994 0
vn 0 -0.099999994 0
vn 0 -0.099999994 0
vn 0 -0.099999994 0
vn 0 -0.099999994 0
vn 0 -0.099999994 0
vn 0 -0.099999994 0
vn 0 -0.099999994 0
vn 0 -0.099999994 0
vn 0 -0.099999994 0
vn 0 -0.099999994 0
vn 0 -0.099999994 0
vn 0 0 -0.099999994
vn 0 0 -0.099999994
vn 0 0 -0.099999994
vn 0 0 -0.099999994
vn 0 0 -0.099999994
vn 0 0 -0.099999994
vn 0 0 -0.099999994
vn 0 0 -0.099999994
vn 0.0258819964 0 -0.0965929851
vn 0.0258819964 0 -0.0965929851
vn 0 0 -0.099999994
vn 0.0258819964 0 -0.0965929851
vn 0.0258819964 0 -0.0965929851
vn 0.0258819964 0 -0.0965929851
vn 0.049999997 0 -0.0866030008
vn 0.049999997 0 -0.0866030008
vn 0.0258819964 0 -0.0965929851
vn 0.049999997 0 -0.0866030008
vn 0.049999997 0 -0.0866030008
vn 0.049999997 0 -0.0866030008
vn 0.0707110018 0 -0.0707110018
vn 0.0707110018 0 -0.0707110018
vn 0.049999997 0 -0.0866030008
vn 0.0707110018 0 -0.0707110018
vn 0.0707110018 0 -0.0707110018
vn 0.0707110018 0 -0.0707110018
vn 0.0866030008 0 -0.049999997
vn 0.0866030008 0 -0.049999997
vn 0.0707110018 0 -0.0707110018
vn 0.0866030008 0 -0.049999997
vn 0.0866030008 0 -0.049999997
vn 0.0866030008 0 -0.049999997
vn 0.0965929851 0 -0.0258819964
vn 0.0965929851 0 -0.0258819964
vn 0.0866030008 0 -0.049999997
vn 0.0965929851 0 -0.0258819964
vn 0.0965929851 0 -0.0258819964
vn 0.0965929851 0 -0.0258819964
vn 0.099999994 0 0
vn 0.099999994 0 0
vn 0.0965929851 0 -0.0258819964
vn 0.099999994 0 0
vn 0 0 0.099999994
vn 0 0 0.099999994
vn -0.0258819964 0 0.0965929851
vn -0.0258819964 0 0.0965929851
vn 0 0 0.099999994
vn -0.0258819964 0 0.0965929851
vn -0.0258819964 0 0.0965929851
vn -0.0258819964 0 0.0965929851
vn -0.049999997 0 0.0866030008
vn -0.049999997 0 0.0866030008
vn -0.0258819964 0 0.0965929851
vn -0.049999997 0 0.0866030008
vn -0.049999997 0 0.0866030008
vn -0.049999997 0 0.0866030008
vn -0.0707110018 0 0.0707110018
vn -0.0707110018 0 0.0707110018
vn -0.049999997 0 0.0866030008
vn -0.0707110018 0 0.0707110018
vn -0.0707110018 0 0.0707110018
vn -0.0707110018 0 0.0707110018
vn -0.0866030008 0 0.049999997
vn -0.0866030008 0 0.049999997
vn -0.0707110018 0 0.0707110018
vn -0.0866030008 0 0.049999997
vn -0.0866030008 0 0.049999997
vn -0.0866030008 0 0.049999997
vn -0.0965929851 0 0.0258819964
vn -0.0965929851 0 0.0258819964
vn -0.0866030008 0 0.049999997
vn -0.0965929851 0 0.0258819964
vn -0.0965929851 0 0.0258819964
vn -0.0965929851 0 0.0258819964
vn -0.099999994 0 0
vn -0.099999994 0 0
vn -0.0965929851 0 0.0258819964
vn -0.099999994 0 0
vn 0 0 0.099999994
vn 0 0 0.099999994
vn 0 0 0.099999994
vn 0 0 0.099999994
vn 0 0 0.099999994
vn 0 0 0.099999994
vn 0 0 0.099999994
vn 0 0 0.099999994
vn 0.0258819964 0 0.0965929851
vn 0.0258819964 0 0.0965929851
vn 0 0 0.099999994
vn 0.0258819964 0 0.0965929851
vn 0.0258819964 0 0.0965929851
vn 0.0258819964 0 0.0965929851
vn 0.049999997 0 0.0866030008
vn 0.049999997 0 0.0866030008
vn 0.0258819964 0 0.0965929851
vn 0.049999997 0 0.0866030008
vn 0.049999997 0 0.0866030008
vn 0.049999997 0 0.0866030008
vn 0.0707110018 0 0.0707110018
vn 0.0707110018 0 0.0707110018
vn 0.049999997 0 0.0866030008
vn 0.0707110018 0 0.0707110018
vn 0.0707110018 0 0.0707110018
vn 0.0707110018 0 0.0707110018
vn 0.0866030008 0 0.049999997
vn 0.0866030008 0 0.049999997
vn 0.0707110018 0 0.0707110018
vn 0.0866030008 0 0.049999997
vn 0.0866030008 0 0.049999997
vn 0.0866030008 0 0.049999997
vn 0.0965929851 0 0.0258819964
vn 0.0965929851 0 0.0258819964
vn 0.0866030008 0 0.049999997
vn 0.0965929851 0 0.0258819964
vn 0.0965929851 0 0.0258819964
vn 0.0965929851 0 0.0258819964
vn 0.099999994 0 0
vn 0.099999994 0 0
vn 0.0965929851 0 0.0258819964
vn 0.099999994 0 0
vn 0.099999994 0 0
vn 0.099999994 0 0
vn 0.099999994 0 0
vn 0.099999994 0 0
vn 0.099999994 0 0
vn 0.099999994 0 0
vn -0.099999994 0 0
vn -0.099999994 0 0
vn -0.099999994 0 0
vn -0.099999994 0 0
vn -0.099999994 0 0
vn -0.099999994 0 0
vn 0 0.099999994 0
vn 0 0.099999994 0
vn 0 0.099999994 0
vn 0 0.099999994 0
vn 0 0.099999994 0
vn 0 0.099999994 0
vn 0 0.099999994 0
vn 0 0.099999994 0
vn 0 0.099999994 0
vn 0 0.099999994 0
vn 0 0.099999994 0
vn 0 0.099999994 0
vn 0 0.099999994 0
vn 0 0.099999994 0
vn 0 0.099999994 0
vn 0 0.099999994 0
vn 0 0.099999994 0
vn 0 0.099999994 0
vn 0 0.099999994 0
vn 0 0.099999994 0
vn 0 0.099999994 0
vn 0 0.099999994 0
vn 0 0.099999994 0
vn 0 0.099999994 0
vn 0 0.099999994 0
vn 0 0.099999994 0
vn 0 0.099999994 0
vn 0 0.099999994 0
vn 0 0.099999994 0
vn 0 0.099999994 0
vn 0 0.099999994 0
vn 0 0.099999994 0
vn 0 0.099999994 0
vn 0 0.099999994 0
vn 0 0.099999994 0
vn 0 0.099999994 0
vn 0 0.099999994 0
vn 0 0.099999994 0
vn 0 0.099999994 0
vn 0 0.099999994 0
vn 0 0.099999994 0
vn 0 0.099999994 0
vn 0 0.099999994 0
vn 0 0.099999994 0
vn 0 0.099999994 0
vn 0 0.099999994 0
vn 0 0.099999994 0
vn 0 0.099999994 0
vn 0 0.099999994 0
vn 0 0.099999994 0
vn 0 0.099999994 0
vn 0 0.099999994 0
vn 0 0.099999994 0
vn 0 0.099999994 0
vn 0 0.099999994 0
vn 0 0.099999994 0
vn 0 0.099999994 0
vn 0 0.099999994 0
vn 0 0.099999994 0
vn 0 0.099999994 0
vn 0 0.099999994 0
vn 0 0.099999994 0
vn 0 0.099999994 0
vn 0 0.099999994 0
vn 0 0.099999994 0
vn 0 0.099999994 0
vn 0 0.099999994 0
vn 0 0.099999994 0
vn 0 0.099999994 0
vn 0 0.099999994 0
vn 0 0.099999994 0
vn 0 0.099999994 0
vn 0 0.099999994 0
vn 0 0.099999994 0
vn 0 0.099999994 0
vn 0 0.099999994 0
vn 0 0.099999994 0
vn 0 0.099999994 0
g 
f 14//1 1//2 13//3
f 13//4 1//5 2//6
f 13//7 2//8 12//9
f 12//10 2//11 3//12
f 12//13 3//14 11//15
f 11//16 3//17 4//18
f 11//19 4//20 10//21
f 10//22 4//23 5//24
f 10//25 5//26 9//27
f 9//28 5//29 6//30
f 9//31 6//32 8//33
f 8//34 6//35 7//36
f 13//37 8//38 14//39
f 14//40 8//41 28//42
f 14//43 28//44 29//45
f 13//46 12//47 8//48
f 8//49 12//50 11//51
f 8//52 11//53 10//54
f 10//55 9//56 8//57
f 28//58 8//59 22//60
f 22//61 8//62 15//63
f 22//64 15//65 21//66
f 21//67 15//68 16//69
f 21//70 16//71 17//72
f 17//73 18//74 21//75
f 21//76 18//77 19//78
f 21//79 19//80 20//81
f 23//82 24//83 22//84
f 22//85 24//86 25//87
f 22//88 25//89 26//90
f 26//91 27//92 22//93
f 22//94 27//95 28//96
f 30//97 31//98 29//99
f 29//100 31//101 32//102
f 29//103 32//104 33//105
f 33//106 34//107 29//108
f 29//109 34//110 35//111
f 29//112 35//113 14//114
f 7//115 36//116 8//117
f 8//118 36//119 15//120
f 15//121 36//122 16//123
f 16//124 36//125 37//126
f 16//127 37//128 17//129
f 17//130 37//131 38//132
f 17//133 38//134 18//135
f 18//136 38//137 39//138
f 18//139 39//140 19//141
f 19//142 39//143 40//144
f 19//145 40//146 20//147
f 20//148 40//149 41//150
f 20//151 41//152 21//153
f 21//154 41//155 42//156
f 29//157 43//158 30//159
f 30//160 43//161 44//162
f 30//163 44//164 31//165
f 31//166 44//167 45//168
f 31//169 45//170 32//171
f 32//172 45//173 46//174
f 32//175 46//176 33//177
f 33//178 46//179 47//180
f 33//181 47//182 34//183
f 34//184 47//185 48//186
f 34//187 48//188 35//189
f 35//190 48//191 49//192
f 29//193 28//194 43//195
f 43//196 28//197 50//198
f 50//199 28//200 56//201
f 56//202 28//203 27//204
f 56//205 27//206 55//207
f 55//208 27//209 26//210
f 55//211 26//212 54//213
f 54//214 26//215 25//216
f 54//217 25//218 53//219
f 53//220 25//221 24//222
f 53//223 24//224 52//225
f 52//226 24//227 23//228
f 52//229 23//230 51//231
f 51//232 23//233 22//234
f 42//235 51//236 21//237
f 21//238 51//239 22//240
f 14//241 35//242 1//243
f 1//244 35//245 49//246
f 6//247 5//248 7//249
f 7//250 5//251 4//252
f 7//253 4//254 3//255
f 3//256 2//257 7//258
f 7//259 2//260 1//261
f 7//262 1//263 49//264
f 48//265 43//266 49//267
f 49//268 43//269 36//270
f 49//271 36//272 7//273
f 48//274 47//275 43//276
f 43//277 47//278 46//279
f 43//280 46//281 45//282
f 45//283 44//284 43//285
f 36//286 43//287 42//288
f 42//289 43//290 50//291
f 42//292 50//293 51//294
f 51//295 50//296 56//297
f 51//298 56//299 55//300
f 55//301 54//302 51//303
f 51//304 54//305 53//306
f 51//307 53//308 52//309
f 41//310 40//311 42//312
f 42//313 40//314 39//315
f 42//316 39//317 38//318
f 38//319 37//320 42//321
f 42//322 37//323 36//324
